<svg xmlns="http://www.w3.org/2000/svg" viewBox="0 0 1560 850" width="100%" height="100%" style="background-color: #080A0F; font-family: -apple-system, BlinkMacSystemFont, 'Segoe UI', Roboto, sans-serif;">
  
  <!-- ================================================================= -->
  <!-- SCREEN 1: HOME (홈 대시보드) - X: 20 -->
  <!-- ================================================================= -->
  <g transform="translate(20, 20)">
    <!-- 기기 외곽선 및 배경 -->
    <rect width="360" height="800" rx="24" fill="#0E121A" stroke="#222A3A" stroke-width="2"/>
    <rect width="360" height="40" rx="0" fill="#131924" style="clip-path: inset(0 0 0 0 round 24 24 0 0);"/>
    <text x="30" y="25" fill="#626B7A" font-size="12" font-weight="bold">9:41</text>
    <text x="180" y="70" fill="#FFFFFF" font-size="16" font-weight="bold" text-anchor="middle">가상 투자 홈</text>
    
    <!-- 1. 총 자산 카드 -->
    <g transform="translate(16, 100)">
      <rect width="328" height="110" rx="14" fill="#1A2232" stroke="#26334D" stroke-width="1"/>
      <text x="16" y="28" fill="#8491A5" font-size="12">내 총 가상 자산</text>
      <text x="16" y="60" fill="#FFFFFF" font-size="22" font-weight="bold">45,230,000 원</text>
      <text x="16" y="88" fill="#FF5252" font-size="13" font-weight="bold">+1,230,000 원 (+2.79%)</text>
      <rect x="252" y="16" width="60" height="24" rx="12" fill="#2C3A54"/>
      <text x="282" y="32" fill="#00E676" font-size="11" font-weight="bold" text-anchor="middle">랭킹 12위</text>
    </g>
    
    <!-- 2. 미니 차트 (시장 지수) -->
    <g transform="translate(16, 226)">
      <rect width="328" height="140" rx="14" fill="#131924"/>
      <text x="16" y="25" fill="#BAC4D1" font-size="13" font-weight="bold">가상 코스피</text>
      <text x="16" y="48" fill="#00E676" font-size="18" font-weight="bold">2,654.12</text>
      <!-- 차트 라인 -->
      <path d="M 16 110 Q 90 100 140 75 T 250 90 T 312 60" fill="none" stroke="#00E676" stroke-width="2" stroke-linecap="round"/>
      <path d="M 16 110 Q 90 100 140 75 T 250 90 T 312 60 L 312 125 L 16 125 Z" fill="#00E676" opacity="0.05"/>
    </g>
    
    <!-- 3. 실시간 인기 종목 -->
    <g transform="translate(16, 382)">
      <text x="0" y="20" fill="#FFFFFF" font-size="15" font-weight="bold">실시간 가상 랭킹</text>
      <!-- 종목 1 -->
      <g transform="translate(0, 35)">
        <rect width="328" height="54" rx="10" fill="#131924"/>
        <rect x="12" y="12" width="30" height="30" rx="6" fill="#FF5252" opacity="0.15"/>
        <text x="27" y="31" fill="#FF5252" font-size="12" font-weight="bold" text-anchor="middle">A</text>
        <text x="54" y="24" fill="#FFFFFF" font-size="13" font-weight="bold">가상 삼성전자</text>
        <text x="54" y="42" fill="#626B7A" font-size="11">거래량 1.5M</text>
        <text x="316" y="24" fill="#FF5252" font-size="13" font-weight="bold" text-anchor="end">74,500</text>
        <text x="316" y="42" fill="#FF5252" font-size="11" text-anchor="end">+2.41%</text>
      </g>
      <!-- 종목 2 -->
      <g transform="translate(0, 97)">
        <rect width="328" height="54" rx="10" fill="#131924"/>
        <rect x="12" y="12" width="30" height="30" rx="6" fill="#3D8BFF" opacity="0.15"/>
        <text x="27" y="31" fill="#3D8BFF" font-size="12" font-weight="bold" text-anchor="middle">B</text>
        <text x="54" y="24" fill="#FFFFFF" font-size="13" font-weight="bold">가상 하이닉스</text>
        <text x="54" y="42" fill="#626B7A" font-size="11">거래량 920K</text>
        <text x="316" y="24" fill="#3D8BFF" font-size="13" font-weight="bold" text-anchor="end">162,100</text>
        <text x="316" y="42" fill="#3D8BFF" font-size="11" text-anchor="end">-1.15%</text>
      </g>
    </g>
    
    <!-- 하단 탭바 (공통 - HOME 활성화) -->
    <g transform="translate(0, 730)">
      <rect width="360" height="70" fill="#131924" stroke="#222A3A" stroke-width="1" style="clip-path: inset(0 0 0 0 round 0 0 24 24);"/>
      <!-- 홈 -->
      <circle cx="45" cy="25" r="12" fill="#00E676" opacity="0.2"/>
      <circle cx="45" cy="25" r="5" fill="#00E676"/>
      <text x="45" y="52" fill="#00E676" font-size="10" font-weight="bold" text-anchor="middle">홈</text>
      <!-- 시세 -->
      <circle cx="135" cy="25" r="5" fill="#626B7A"/>
      <text x="135" y="52" fill="#626B7A" font-size="10" text-anchor="middle">시세</text>
      <!-- 주문 -->
      <circle cx="225" cy="25" r="5" fill="#626B7A"/>
      <text x="225" y="52" fill="#626B7A" font-size="10" text-anchor="middle">주문</text>
      <!-- 내정보 -->
      <circle cx="315" cy="25" r="5" fill="#626B7A"/>
      <text x="315" y="52" fill="#626B7A" font-size="10" text-anchor="middle">내 정보</text>
    </g>
  </g>

  <!-- ================================================================= -->
  <!-- SCREEN 2: MARKET (시세/현재가 탭) - X: 400 -->
  <!-- ================================================================= -->
  <g transform="translate(400, 20)">
    <rect width="360" height="800" rx="24" fill="#0E121A" stroke="#222A3A" stroke-width="2"/>
    <rect width="360" height="40" rx="0" fill="#131924" style="clip-path: inset(0 0 0 0 round 24 24 0 0);"/>
    <text x="30" y="25" fill="#626B7A" font-size="12" font-weight="bold">9:41</text>
    
    <!-- 주식 헤더 정보 -->
    <text x="20" y="75" fill="#FFFFFF" font-size="16" font-weight="bold">가상 삼성전자</text>
    <text x="20" y="95" fill="#FF5252" font-size="18" font-weight="bold">74,500 <tspan font-size="12" font-weight="normal">+1,750 (+2.41%)</tspan></text>
    
    <!-- 메인 캔들 차트 영역 -->
    <g transform="translate(16, 115)">
      <rect width="328" height="180" rx="12" fill="#131924"/>
      <!-- 가이드선 -->
      <line x1="10" y1="40" x2="318" y2="40" stroke="#222A3A" stroke-dasharray="2"/>
      <line x1="10" y1="90" x2="318" y2="90" stroke="#222A3A" stroke-dasharray="2"/>
      <line x1="10" y1="140" x2="318" y2="140" stroke="#222A3A" stroke-dasharray="2"/>
      <!-- 가상의 캔들 차트 바들 -->
      <line x1="50" y1="60" x2="50" y2="120" stroke="#3D8BFF" stroke-width="2"/>
      <rect x="44" y="70" width="12" height="40" fill="#3D8BFF"/>
      
      <line x1="110" y1="50" x2="110" y2="110" stroke="#FF5252" stroke-width="2"/>
      <rect x="104" y="60" width="12" height="35" fill="#FF5252"/>
      
      <line x1="170" y1="30" x2="170" y2="130" stroke="#FF5252" stroke-width="2"/>
      <rect x="164" y="40" width="12" height="70" fill="#FF5252"/>
      
      <line x1="230" y1="40" x2="230" y2="100" stroke="#3D8BFF" stroke-width="2"/>
      <rect x="224" y="50" width="12" height="30" fill="#3D8BFF"/>

      <line x1="290" y1="20" x2="290" y2="90" stroke="#FF5252" stroke-width="2"/>
      <rect x="284" y="30" width="12" height="50" fill="#FF5252"/>
    </g>

    <!-- 매수/매도 호가창 레이아웃 -->
    <g transform="translate(16, 310)">
      <text x="0" y="20" fill="#FFFFFF" font-size="14" font-weight="bold">호가 및 잔량</text>
      <!-- 매도 호가 (파란색 계열 매칭) -->
      <g transform="translate(0, 32)">
        <rect width="160" height="30" fill="#3D8BFF" opacity="0.08"/>
        <rect x="164" width="164" height="30" fill="#131924"/>
        <text x="150" y="20" fill="#3D8BFF" font-size="12" text-anchor="end" font-weight="bold">74,800</text>
        <text x="174" y="20" fill="#8491A5" font-size="11">12,450주 잔량</text>
      </g>
      <g transform="translate(0, 66)">
        <rect width="160" height="30" fill="#3D8BFF" opacity="0.15"/>
        <rect x="164" width="164" height="30" fill="#131924"/>
        <text x="150" y="20" fill="#3D8BFF" font-size="12" text-anchor="end" font-weight="bold">74,700</text>
        <text x="174" y="20" fill="#8491A5" font-size="11">24,110주 잔량</text>
      </g>
      <!-- 매수 호가 (붉은색 계열 매칭) -->
      <g transform="translate(0, 100)">
        <rect width="160" height="30" fill="#FF5252" opacity="0.15"/>
        <rect x="164" width="164" height="30" fill="#131924"/>
        <text x="150" y="20" fill="#FF5252" font-size="12" text-anchor="end" font-weight="bold">74,600</text>
        <text x="174" y="20" fill="#8491A5" font-size="11">18,940주 잔량</text>
      </g>
      <g transform="translate(0, 134)">
        <rect width="160" height="30" fill="#FF5252" opacity="0.08"/>
        <rect x="164" width="164" height="30" fill="#131924"/>
        <text x="150" y="20" fill="#FF5252" font-size="12" text-anchor="end" font-weight="bold">74,500</text>
        <text x="174" y="20" fill="#8491A5" font-size="11">35,201주 잔량</text>
      </g>
    </g>

    <!-- 하단 탭바 (공통 - MARKET 활성화) -->
    <g transform="translate(0, 730)">
      <rect width="360" height="70" fill="#131924" stroke="#222A3A" stroke-width="1" style="clip-path: inset(0 0 0 0 round 0 0 24 24);"/>
      <!-- 홈 -->
      <circle cx="45" cy="25" r="5" fill="#626B7A"/>
      <text x="45" y="52" fill="#626B7A" font-size="10" text-anchor="middle">홈</text>
      <!-- 시세 -->
      <circle cx="135" cy="25" r="12" fill="#00E676" opacity="0.2"/>
      <circle cx="135" cy="25" r="5" fill="#00E676"/>
      <text x="135" y="52" fill="#00E676" font-size="10" font-weight="bold" text-anchor="middle">시세</text>
      <!-- 주문 -->
      <circle cx="225" cy="25" r="5" fill="#626B7A"/>
      <text x="225" y="52" fill="#626B7A" font-size="10" text-anchor="middle">주문</text>
      <!-- 내정보 -->
      <circle cx="315" cy="25" r="5" fill="#626B7A"/>
      <text x="315" y="52" fill="#626B7A" font-size="10" text-anchor="middle">내 정보</text>
    </g>
  </g>

  <!-- ================================================================= -->
  <!-- SCREEN 3: ORDER (가상 매수/매도 주문 탭) - X: 780 -->
  <!-- ================================================================= -->
  <g transform="translate(780, 20)">
    <rect width="360" height="800" rx="24" fill="#0E121A" stroke="#222A3A" stroke-width="2"/>
    <rect width="360" height="40" rx="0" fill="#131924" style="clip-path: inset(0 0 0 0 round 24 24 0 0);"/>
    <text x="30" y="25" fill="#626B7A" font-size="12" font-weight="bold">9:41</text>
    
    <!-- 매수/매도 토글 탭 -->
    <g transform="translate(16, 60)">
      <rect width="328" height="44" rx="10" fill="#131924"/>
      <!-- 매수 선택 활성화 상태 지정 -->
      <rect x="4" y="4" width="158" height="36" rx="8" fill="#FF5252"/>
      <text x="83" y="26" fill="#FFFFFF" font-size="14" font-weight="bold" text-anchor="middle">가상 매수</text>
      <text x="247" y="26" fill="#626B7A" font-size="14" font-weight="bold" text-anchor="middle">가상 매도</text>
    </g>

    <!-- 주문 입력 폼 컴포넌트 -->
    <g transform="translate(16, 130)">
      <!-- 종목 선택 정보 -->
      <text x="0" y="15" fill="#8491A5" font-size="12">선택 종목</text>
      <rect x="0" y="25" width="328" height="48" rx="10" fill="#131924" stroke="#222A3A" stroke-width="1"/>
      <text x="16" y="54" fill="#FFFFFF" font-size="14" font-weight="bold">가상 삼성전자 (74,500원)</text>
      
      <!-- 가격 입력 박스 -->
      <text x="0" y="105" fill="#8491A5" font-size="12">주문 가격 (원)</text>
      <rect x="0" y="115" width="328" height="48" rx="10" fill="#131924"/>
      <text x="16" y="144" fill="#FFFFFF" font-size="16" font-weight="bold">74,500</text>
      <text x="312" y="144" fill="#626B7A" font-size="16" text-anchor="end">▲  ▼</text>

      <!-- 수량 입력 박스 및 퀵버튼 -->
      <text x="0" y="195" fill="#8491A5" font-size="12">주문 수량 (주)</text>
      <rect x="0" y="205" width="328" height="48" rx="10" fill="#131924"/>
      <text x="16" y="234" fill="#626B7A" font-size="14">가능 수량 내 직접 입력</text>
      
      <!-- 가능 비율 퀵패드 -->
      <g transform="translate(0, 263)">
        <rect width="74" height="28" rx="6" fill="#1A2232"/>
        <text x="37" y="18" fill="#BAC4D1" font-size="11" text-anchor="middle">10%</text>
        <rect x="84" width="74" height="28" rx="6" fill="#1A2232"/>
        <text x="121" y="18" fill="#BAC4D1" font-size="11" text-anchor="middle">25%</text>
        <rect x="168" width="74" height="28" rx="6" fill="#1A2232"/>
        <text x="205" y="18" fill="#BAC4D1" font-size="11" text-anchor="middle">50%</text>
        <rect x="252" width="74" height="28" rx="6" fill="#1A2232"/>
        <text x="289" y="18" fill="#BAC4D1" font-size="11" text-anchor="middle">100%</text>
      </g>
    </g>

    <!-- 주문 금액 총 요약 및 거래 실행 버튼 -->
    <g transform="translate(16, 460)">
      <line x1="0" y1="0" x2="328" y2="0" stroke="#222A3A"/>
      <text x="0" y="30" fill="#8491A5" font-size="13">주문 총액</text>
      <text x="328" y="30" fill="#FF5252" font-size="18" font-weight="bold" text-anchor="end">0 원</text>
      
      <text x="0" y="60" fill="#8491A5" font-size="12">주문 후 가상 잔액</text>
      <text x="328" y="60" fill="#FFFFFF" font-size="12" text-anchor="end">45,230,000 원</text>

      <!-- 최종 매수 거대한 버튼 -->
      <rect x="0" y="90" width="328" height="54" rx="12" fill="#FF5252"/>
      <text x="164" y="123" fill="#FFFFFF" font-size="16" font-weight="bold" text-anchor="middle">가상투자 매수 주문하기</text>
    </g>

    <!-- 하단 탭바 (공통 - ORDER 활성화) -->
    <g transform="translate(0, 730)">
      <rect width="360" height="70" fill="#131924" stroke="#222A3A" stroke-width="1" style="clip-path: inset(0 0 0 0 round 0 0 24 24);"/>
      <!-- 홈 -->
      <circle cx="45" cy="25" r="5" fill="#626B7A"/>
      <text x="45" y="52" fill="#626B7A" font-size="10" text-anchor="middle">홈</text>
      <!-- 시세 -->
      <circle cx="135" cy="25" r="5" fill="#626B7A"/>
      <text x="135" y="52" fill="#626B7A" font-size="10" text-anchor="middle">시세</text>
      <!-- 주문 -->
      <circle cx="225" cy="25" r="12" fill="#00E676" opacity="0.2"/>
      <circle cx="225" cy="25" r="5" fill="#00E676"/>
      <text x="225" y="52" fill="#00E676" font-size="10" font-weight="bold" text-anchor="middle">주문</text>
      <!-- 내정보 -->
      <circle cx="315" cy="25" r="5" fill="#626B7A"/>
      <text x="315" y="52" fill="#626B7A" font-size="10" text-anchor="middle">내 정보</text>
    </g>
  </g>

  <!-- ================================================================= -->
  <!-- SCREEN 4: PROFILE (내 정보 / 포트폴리오 탭) - X: 1160 -->
  <!-- ================================================================= -->
  <g transform="translate(1160, 20)">
    <rect width="360" height="800" rx="24" fill="#0E121A" stroke="#222A3A" stroke-width="2"/>
    <rect width="360" height="40" rx="0" fill="#131924" style="clip-path: inset(0 0 0 0 round 24 24 0 0);"/>
    <text x="30" y="25" fill="#626B7A" font-size="12" font-weight="bold">9:41</text>
    
    <!-- 프로필 요약 카드 -->
    <g transform="translate(16, 65)">
      <circle cx="30" cy="30" r="30" fill="#1A2232"/>
      <!-- 가상 아바타 모양의 더미 -->
      <circle cx="30" cy="24" r="10" fill="#626B7A"/>
      <path d="M 12 48 Q 30 36 48 48 Z" fill="#626B7A"/>
      
      <text x="74" y="26" fill="#FFFFFF" font-size="16" font-weight="bold">투자왕스팀이</text>
      <rect x="74" y="36" width="75" height="18" rx="4" fill="#00E676" opacity="0.15"/>
      <text x="111" y="49" fill="#00E676" font-size="10" font-weight="bold" text-anchor="middle">골드 등급 리그</text>
    </g>

    <!-- 보유 주식 리스트 자산 분포 정보 포트폴리오 섹션 -->
    <g transform="translate(16, 155)">
      <text x="0" y="15" fill="#FFFFFF" font-size="14" font-weight="bold">나의 모의 보유 주식</text>
      
      <!-- 보유 종목 리스트 피드들 1 -->
      <g transform="translate(0, 30)">
        <rect width="328" height="64" rx="12" fill="#131924"/>
        <text x="16" y="28" fill="#FFFFFF" font-size="13" font-weight="bold">가상 삼성전자</text>
        <text x="16" y="46" fill="#8491A5" font-size="11">50 주 보유 · 평균 72,000원</text>
        <!-- 평가 손익 결과 피드백 우측 정렬 -->
        <text x="312" y="28" fill="#FF5252" font-size="13" font-weight="bold" text-anchor="end">3,725,000 원</text>
        <text x="312" y="46" fill="#FF5252" font-size="11" text-anchor="end">+3.47%</text>
      </g>
      
      <!-- 보유 종목 리스트 피드들 2 -->
      <g transform="translate(0, 106)">
        <rect width="328" height="64" rx="12" fill="#131924"/>
        <text x="16" y="28" fill="#FFFFFF" font-size="13" font-weight="bold">가상 카카오</text>
        <text x="16" y="46" fill="#8491A5" font-size="11">100 주 보유 · 평균 51,000원</text>
        <text x="312" y="28" fill="#3D8BFF" font-size="13" font-weight="bold" text-anchor="end">4,920,000 원</text>
        <text x="312" y="46" fill="#3D8BFF" font-size="11" text-anchor="end">-3.53%</text>
      </g>
    </g>

    <!-- 누적 투자 분석 이력 간이 세션 가이드 -->
    <g transform="translate(16, 360)">
      <rect width="328" height="120" rx="14" fill="#131924" stroke="#222A3A" stroke-width="1"/>
      <text x="16" y="28" fill="#BAC4D1" font-size="13" font-weight="bold">모의투자 요약 리포트</text>
      
      <text x="16" y="60" fill="#8491A5" font-size="12">가상 총 예수금</text>
      <text x="312" y="60" fill="#FFFFFF" font-size="12" font-weight="bold" text-anchor="end">6,585,000 원</text>
      
      <text x="16" y="84" fill="#8491A5" font-size="12">누적 매매 횟수</text>
      <text x="312" y="84" fill="#FFFFFF" font-size="12" font-weight="bold" text-anchor="end">24 회</text>

      <text x="16" y="104" fill="#8491A5" font-size="12">주간 거래 승률</text>
      <text x="312" y="104" fill="#00E676" font-size="12" font-weight="bold" text-anchor="end">68%</text>
    </g>

    <!-- 로그아웃 / 계정 초기화 더미 버튼 메뉴 단락 -->
    <g transform="translate(16, 500)">
      <rect width="328" height="44" rx="10" fill="#1A2232"/>
      <text x="16" y="26" fill="#BAC4D1" font-size="13">투자 자금 초기화하기 (1억으로 세팅)</text>
      <text x="312" y="26" fill="#8491A5" font-size="13" text-anchor="end">></text>
    </g>

    <!-- 하단 탭바 (공통 - PROFILE 활성화) -->
    <g transform="translate(0, 730)">
      <rect width="360" height="70" fill="#131924" stroke="#222A3A" stroke-width="1" style="clip-path: inset(0 0 0 0 round 0 0 24 24);"/>
      <!-- 홈 -->
      <circle cx="45" cy="25" r="5" fill="#626B7A"/>
      <text x="45" y="52" fill="#626B7A" font-size="10" text-anchor="middle">홈</text>
      <!-- 시세 -->
      <circle cx="135" cy="25" r="5" fill="#626B7A"/>
      <text x="135" y="52" fill="#626B7A" font-size="10" text-anchor="middle">시세</text>
      <!-- 주문 -->
      <circle cx="225" cy="25" r="5" fill="#626B7A"/>
      <text x="225" y="52" fill="#626B7A" font-size="10" text-anchor="middle">주문</text>
      <!-- 내정보 -->
      <circle cx="315" cy="25" r="12" fill="#00E676" opacity="0.2"/>
      <circle cx="315" cy="25" r="5" fill="#00E676"/>
      <text x="315" y="52" fill="#00E676" font-size="10" font-weight="bold" text-anchor="middle">내 정보</text>
    </g>
  </g>
</svg>
